<svg width="220" height="64" viewBox="0 0 220 64" fill="none" xmlns="http://www.w3.org/2000/svg">
<path d="M150.085 55.0877C150.172 53.9409 149.853 52.9333 149.221 51.9801C148.576 51.0094 148.254 49.9607 148.74 48.8044L148.817 48.5412C149.102 47.4993 148.971 46.5367 148.197 45.7376C147.616 45.1362 147.457 44.4463 147.626 43.6527C147.851 42.6097 147.777 41.6427 147.145 40.7076C146.598 39.8961 146.504 39.0003 146.939 38.0403C147.306 37.2345 147.546 36.3642 147.779 35.5066C147.96 34.8384 147.961 34.1308 147.708 33.4805C147.502 32.95 147.555 32.4685 147.683 31.9463C147.819 31.3956 147.894 30.8269 147.968 30.2637C148.026 29.8302 147.881 29.4469 147.555 29.1495C147.128 28.7597 146.98 28.2742 147.051 27.7219C147.136 27.0878 147.259 26.4606 146.926 25.8498C146.867 25.7434 146.902 25.5798 146.911 25.4433C146.993 24.3416 146.714 23.3161 146.279 22.3179C146.03 21.7424 145.924 21.1371 145.99 20.5112C146.116 19.2963 146.039 18.0841 145.827 16.8937C145.598 15.6133 145.237 14.3587 144.966 13.0851C144.871 12.6446 144.81 12.1812 144.837 11.7353C144.893 10.8257 145.003 9.91767 145.125 9.01225C145.273 7.92122 145.542 6.86315 146.015 5.85685C146.468 4.8833 146.889 3.89337 147.31 2.90475C147.461 2.54748 147.59 2.17798 147.681 1.80149C147.79 1.34878 147.785 0.891925 147.509 0.480274C147.143 -0.0665551 146.661 -0.168758 146.181 0.289408C145.79 0.666991 145.42 1.09808 145.158 1.56978C144.643 2.49704 144.05 3.35593 143.336 4.14014C142.838 4.68697 142.626 5.33884 142.596 6.08331C142.539 7.53009 142.207 8.88559 141.153 9.98034C140.853 10.2926 140.59 10.6444 140.347 11.0043C140.103 11.3616 139.847 11.7311 139.708 12.1334C139.378 13.0809 139.019 14.0355 138.85 15.02C138.627 16.3302 138.281 17.5986 137.931 18.8777C137.641 19.9399 137.144 20.8125 136.396 21.5791C135.922 22.0645 135.59 22.64 135.383 23.2752C135.135 24.0361 134.918 24.8052 134.711 25.5785C134.618 25.9303 134.553 26.2944 134.519 26.6556C134.36 28.3845 134.234 30.1165 134.057 31.8413C134.015 32.2503 134.052 32.7046 133.766 33.0754L133.645 32.9692C133.189 32.346 133.134 31.6247 133.064 30.8883C132.903 29.162 132.726 27.4398 132.796 25.7013C132.816 25.1763 132.796 24.65 132.812 24.125C132.826 23.6954 132.645 23.3764 132.318 23.12C132.194 23.0232 132.065 22.9333 131.921 22.8267C131.947 22.5035 131.973 22.1857 131.998 21.8695C132.057 21.0977 131.951 20.3806 131.449 19.7329C131.27 19.5038 131.192 19.141 131.194 18.841C131.201 18.0666 131.274 17.2907 131.336 16.5174C131.384 15.8764 131.152 15.3556 130.702 14.9153C130.587 14.8048 130.438 14.7149 130.355 14.5854C130.227 14.3836 130.04 14.1504 130.052 13.9405C130.092 13.1919 130.158 12.4378 130.304 11.7043C130.42 11.126 130.684 10.5791 130.85 10.0092C131.149 8.97819 131.461 7.95157 131.697 6.90574C131.818 6.37114 131.551 5.99749 131.098 5.79461C130.665 5.59675 130.303 5.64436 129.956 6.11497C129.359 6.92233 128.802 7.76354 128.294 8.62659C128.071 9.00963 127.979 9.47872 127.879 9.92072C127.713 10.6626 127.535 11.4003 126.978 11.9619C126.376 12.5701 126.047 13.3105 125.833 14.1191C125.799 14.2528 125.73 14.3781 125.651 14.5718C125.275 13.6092 125.122 13.5151 124.307 13.7086C124.278 13.5778 124.268 13.44 124.217 13.3185C123.991 12.7745 123.56 12.69 123.154 13.1248C122.984 13.305 122.812 13.512 122.728 13.7398C122.414 14.5976 122.097 15.4567 121.852 16.3333C121.608 17.2127 121.485 18.1251 121.247 19.0059C120.724 20.9449 120.338 22.9247 119.498 24.7712C119.395 24.9961 119.357 25.2525 119.31 25.4979C119.066 26.8194 119.103 28.1338 119.384 29.4469C119.72 31.0095 119.687 32.5803 119.442 34.1513C119.286 35.167 118.687 35.951 118.041 36.7025C117.018 37.89 116.571 39.2562 116.699 40.8203C116.76 41.5811 116.922 42.3042 117.23 43.0037C117.766 44.2116 117.963 45.4483 117.479 46.7288C117.398 46.9418 117.339 47.1682 117.311 47.3929C117.239 47.9603 117.217 48.5167 117.476 49.0717C117.623 49.3894 117.688 49.7711 117.691 50.1256C117.701 51.5206 117.668 52.9143 117.665 54.3091C117.664 54.5559 117.71 54.8097 117.778 55.0483C117.872 55.3947 118.075 55.6784 118.447 55.764C118.85 55.8568 119.097 55.595 119.305 55.313C119.678 54.807 119.941 54.2478 120.004 53.619C120.119 52.4887 120.492 51.4444 120.936 50.4092C121.137 49.9378 121.219 49.3962 121.253 48.8808C121.319 47.869 121.095 46.8819 120.884 45.8972C120.832 45.6559 120.794 45.3926 120.836 45.1541C121.046 43.9801 121.497 42.8932 122.395 42.0917C123.134 41.4276 123.441 40.6775 123.314 39.7205C123.285 39.4927 123.303 39.2582 123.255 39.0359C123.103 38.3473 123.193 37.6832 123.348 37.0041C123.559 36.07 123.798 35.1306 123.876 34.1802C124.006 32.6021 124.277 31.0588 124.65 29.526C124.911 28.4623 124.915 27.4068 124.534 26.3555C124.164 25.3328 124.196 24.2966 124.554 23.2617C124.733 22.7448 124.831 22.2021 125.003 21.6826C125.192 21.1071 125.324 20.4963 125.861 19.9113C125.905 20.2428 125.965 20.4568 125.956 20.6654C125.919 21.35 125.87 22.0331 125.802 22.7122C125.716 23.5945 125.905 24.3512 126.692 24.8681C127.041 25.0957 127.221 25.4246 127.288 25.8281C127.358 26.2332 127.562 26.615 127.912 26.7746C128.74 27.155 128.879 27.8626 128.955 28.6304L128.976 28.8348C129.139 30.201 129.381 31.5334 130.063 32.7714C130.339 33.2706 130.376 33.9046 130.498 34.4813C130.58 34.8591 130.546 35.2751 130.691 35.6228C130.978 36.314 130.93 37.0001 130.857 37.7116C130.708 39.2268 131.119 40.102 132.468 40.368C132.801 40.4333 132.988 40.6353 133.019 40.9775C133.053 41.3171 133.098 41.6565 133.143 41.9961C133.258 42.8825 133.396 43.7661 133.953 44.5105C134.278 44.9455 134.693 45.1967 135.262 45.0656C135.731 44.9565 136.119 44.4806 136.171 43.9012C136.221 43.3776 136.263 42.8484 136.233 42.3263C136.15 40.9026 136.57 39.6251 137.252 38.3978C137.446 38.0473 137.6 37.6437 137.655 37.248C137.753 36.5267 137.788 35.7934 137.81 35.0635C137.849 33.7465 138.088 32.5152 139.153 31.5947L139.292 31.4419C140.249 30.1383 140.79 28.7298 140.454 27.0825C140.198 25.8172 140.419 24.5844 140.757 23.3654C140.823 23.1267 140.922 22.8963 141.007 22.6618C141.123 22.9429 141.123 23.1938 141.123 23.4445C141.125 24.2191 141.363 24.8777 142.034 25.34C142.201 25.4558 142.342 25.6141 142.478 25.7694C142.81 26.1526 142.986 26.5848 142.841 27.0976C142.707 27.5815 142.571 28.0644 142.423 28.5457C142.135 29.4825 141.714 30.4015 141.576 31.3587C141.38 32.7168 141.447 34.098 141.979 35.4112C142.087 35.6826 142.197 35.9729 142.215 36.2607C142.25 36.9222 142.269 37.5889 142.227 38.2488C142.08 40.4742 142.69 42.4486 144.137 44.1587C144.513 44.6005 144.545 45.0654 144.406 45.626C144.215 46.3949 144.088 47.1872 144.027 47.9769C143.96 48.8251 144.312 49.4905 145.162 49.815L145.28 49.938C145.28 50.3688 145.284 50.8255 145.278 51.2808C145.271 51.8862 145.472 52.4085 145.933 52.8053C146.295 53.1191 146.666 53.4367 147.076 53.6821C147.494 53.9344 147.62 54.2576 147.56 54.7157C147.502 55.1453 147.481 55.5788 147.452 56.0125C147.429 56.3763 147.52 56.6969 147.874 56.881C148.202 57.0513 148.442 56.8537 148.687 56.6777L148.82 56.6696L148.908 56.7653C149.309 57.1675 149.568 57.2354 149.924 57.0337C150.277 56.8319 150.351 56.5375 150.222 56.0247C150.145 55.7192 150.061 55.3947 150.085 55.0877Z" fill="#11B0C8"/>
<path d="M40.3333 57.725C40.199 56.8784 39.8509 56.1147 39.2421 55.4792C38.51 54.709 38.063 53.8186 37.9945 52.7357C37.915 51.492 37.1981 50.6724 36.0629 50.2361C35.6899 50.0917 35.4253 49.8967 35.2472 49.5584C35.0347 49.1546 34.7921 48.7622 34.6153 48.3436C34.3905 47.8131 33.9983 47.4561 33.4705 47.3399C32.8548 47.2021 32.5834 46.83 32.4477 46.2831C32.397 46.0826 32.3285 45.8863 32.2982 45.683C32.0914 44.3727 31.3714 43.4127 30.2417 42.7499C29.8812 42.5372 29.7016 42.2413 29.5316 41.8744C29.186 41.1313 28.8707 40.339 28.3607 39.7172C27.6339 38.8321 26.7196 38.1503 25.4281 38.6576L25.265 38.6127C25.1088 38.2868 24.9674 37.9241 24.77 37.5939C24.2874 36.7935 23.9721 36.7228 23.1632 37.1864L23.0524 37.1932C22.9823 37.0486 22.907 36.889 22.8275 36.7296C22.5506 36.1788 22.3023 35.6099 21.9872 35.081C21.7046 34.6062 21.3634 34.1756 20.6957 34.2068C20.5258 34.2149 20.3488 34.0568 20.0486 33.9166C20.3846 33.6844 20.5585 33.5305 20.7587 33.4324C21.3825 33.1227 21.8542 32.6727 22.09 32.0182C22.1969 31.7236 22.3958 31.56 22.6631 31.4781C22.9907 31.3785 23.3279 31.2901 23.668 31.2599C24.5838 31.1781 25.1912 30.6354 25.6367 29.9208C26.096 29.1844 26.4346 28.3773 26.5773 27.5073C26.65 27.0572 26.7295 26.6482 27.1956 26.3743C27.4163 26.2448 27.5535 25.9024 27.6343 25.6298C27.7331 25.2835 27.7757 24.9083 27.7716 24.5484C27.7647 23.9225 27.9224 23.3991 28.3747 22.9326C29.2029 22.0859 29.4372 21.0386 29.244 19.889C29.0877 18.9604 28.9891 18.0509 29.336 17.1223C29.7486 16.0232 29.4853 15.0455 28.5407 14.3052C28.2515 14.0787 28.1444 13.8293 28.1938 13.4817C28.2239 13.2783 28.2445 13.0724 28.2539 12.8667C28.2869 12.1618 28.3279 11.4568 28.3321 10.7506C28.3321 10.5569 28.2634 10.3278 28.147 10.1736C27.3258 9.08956 26.6662 8.75827 25.5078 9.16053C25.2691 9.24374 25.0291 9.33524 24.7826 9.37324C24.3836 9.43853 24.2424 9.31056 24.1998 8.91092C24.1697 8.61632 24.1656 8.31648 24.1052 8.02734C23.9844 7.42068 23.6322 7.12608 23.0056 7.09332C22.7779 7.08088 22.5436 7.09201 22.3201 7.13569C21.6278 7.27065 21.0328 7.15622 20.4707 6.68146C20.0759 6.34471 19.5878 6.11017 19.1203 5.86754C18.3072 5.44476 17.4696 5.06848 16.662 4.63609C16.1631 4.36617 15.6463 4.22422 15.0853 4.20391C14.811 4.19299 14.5287 4.23121 14.2599 4.18338C13.3689 4.02396 12.6489 4.34717 11.9663 4.87762C11.2055 5.46812 10.4309 6.04334 9.63558 6.58755C8.59087 7.30341 7.45986 7.66199 6.18614 7.25711L5.91739 7.20251C5.39921 7.04026 4.93152 7.17391 4.45594 7.39469C3.68964 7.75197 3.05201 8.26189 2.5077 8.89323C2.18823 9.26557 1.86326 9.4073 1.36967 9.18237C0.930973 8.98452 0.67737 9.06641 0.468999 9.40883C-0.0298623 10.2284 -0.35219 11.5824 0.682859 12.5586C0.850171 12.7154 1.01748 12.8724 1.19446 13.018C1.91157 13.6085 2.00862 14.3502 1.74404 15.1888C1.62898 15.5583 1.50141 15.9293 1.43291 16.3082C1.15449 17.8694 1.27679 19.3203 2.61485 20.4345C2.89436 20.6664 3.13303 20.9569 3.35655 21.2458C3.75683 21.7627 4.05852 22.3122 3.87627 23.0145C3.73904 23.5434 3.6802 24.0915 3.54582 24.6194C3.43187 25.0653 3.43187 25.4674 3.69667 25.8657C3.7913 26.0074 3.85849 26.2105 3.84202 26.3743C3.79833 26.8023 3.89011 27.1882 4.0752 27.5673C4.27413 27.9722 4.29038 28.3747 4.16171 28.8246C3.95049 29.5581 4.03151 30.2726 4.55101 30.8902C4.773 31.1534 4.97324 31.4316 5.19523 31.6947C5.52568 32.0848 5.68882 32.498 5.5338 33.0216C5.35837 33.6135 5.45015 34.178 5.7189 34.7464C6.28934 35.9558 6.65953 37.2377 6.66502 38.5782C6.66634 39.3379 6.73902 40.1326 6.28122 40.8378C5.89456 41.4311 6.11522 42.0295 6.51001 42.482C7.05849 43.112 7.31495 43.8523 7.58897 44.6053C7.71786 44.9613 7.68778 45.2642 7.48621 45.5791C6.88152 46.5266 6.84858 47.5438 7.09406 48.613C7.26686 49.3643 7.60676 50.0325 8.01801 50.6652C8.31135 51.1164 8.53202 51.5828 8.61436 52.1091C8.68308 52.5564 8.86115 52.9313 9.21774 53.2286C9.33015 53.3227 9.43972 53.481 9.45202 53.6214C9.52601 54.3657 9.7043 55.0997 9.48912 55.8633C9.26977 56.639 9.4507 57.0509 10.1623 57.4722C10.6394 57.7543 10.8149 58.1555 10.8423 58.6571C10.863 59.0443 10.8368 59.4359 10.8562 59.823C10.8946 60.5075 11.1043 61.1253 11.6528 61.5836C11.9009 61.7909 12.1683 62.0036 12.5192 61.8562C12.8769 61.709 13.0224 61.3899 13.0292 61.0272C13.0387 60.595 13.0183 60.1585 12.9895 59.7263C12.9401 58.9724 12.9675 58.2566 13.7464 57.831L13.8478 57.7395C14.665 56.9338 14.75 56.0881 14.1824 55.0872C13.7657 54.3508 13.5751 53.5695 13.9479 52.7311C14.0946 52.4009 14.2169 52.0368 14.2428 51.6798C14.2661 51.3306 14.2345 50.9338 14.0825 50.6285C13.7876 50.0395 13.3999 49.494 13.0336 48.9404C12.4592 48.0732 12.1343 47.1885 12.7526 46.201L12.8376 46.0143C13.4242 44.9495 13.4763 43.8857 12.813 42.8318C12.6101 42.5097 12.584 42.2005 12.8116 41.8759C13.2352 41.2787 13.1515 40.6814 12.8211 40.0704C12.625 39.7105 12.4551 39.3314 12.3178 38.9468C12.0546 38.2104 12.2932 37.7629 13.1748 37.4522C13.5244 37.8311 13.9014 38.2606 14.299 38.6712C14.8899 39.2792 15.6248 39.5137 16.4365 39.2835C17.048 39.1104 17.4099 39.3626 17.7074 39.8098C18.024 40.2872 18.2928 40.7943 18.6177 41.2634C18.8768 41.6355 19.1592 42.0024 19.4883 42.3134C19.8324 42.642 20.1011 42.5984 20.4452 42.2682C21.0841 41.6495 21.2211 41.6384 21.8313 42.2697C22.166 42.6202 22.5265 42.8696 23.0311 42.81C23.4081 42.7635 23.648 42.9203 23.7974 43.2489C24.1168 43.9552 24.4596 44.652 24.7529 45.3679C25.1205 46.2678 25.7278 46.5515 26.6039 46.1833C26.7299 46.1303 26.8535 46.0689 26.9822 46.0169C27.4771 45.818 27.5278 45.8081 27.8117 46.2853C28.1613 46.873 28.4808 47.4814 28.7741 48.1003C29.1676 48.9255 29.8146 49.4667 30.6881 49.6194C31.2199 49.7135 31.4996 49.9618 31.7135 50.3911C31.8246 50.6163 31.959 50.8318 32.0701 51.0567C32.5856 52.0971 33.1697 53.068 34.3747 53.4541L34.605 53.6013C35.1987 54.0104 35.7595 54.4342 35.7992 55.2525C35.8403 56.0656 36.1747 56.7989 36.4792 57.5407C36.6876 58.0467 36.9906 58.4544 37.4816 58.7163C37.8805 58.9303 38.1519 59.2494 38.3109 59.6804C38.463 60.0866 38.6468 60.4834 38.84 60.8706C39.1101 61.4081 39.6008 61.7422 39.9451 61.652C40.303 61.5579 40.4921 61.1665 40.4743 60.4944C40.4675 60.1998 40.3153 59.8726 40.4016 59.6173C40.6227 58.9644 40.4321 58.3468 40.3333 57.725ZM19.4161 28.6437C19.2736 28.7337 19.0924 28.7706 18.9238 28.8075C18.5494 28.8947 18.1588 28.9316 17.7954 29.0517C17.3842 29.1882 16.9769 29.3598 16.5986 29.5725C16.3078 29.7376 16.0268 29.9571 15.8171 30.2119C15.5154 30.5814 15.1604 30.8378 14.6749 31.0315C14.5102 30.8939 14.3528 30.7315 14.1677 30.6074C13.356 30.0632 12.8652 30.0239 12.2168 30.5078C12.0399 30.6402 11.8328 30.7288 11.4833 30.9252C11.5491 30.4943 11.5669 30.2135 11.6396 29.9475C11.7068 29.7075 11.8438 29.488 11.9329 29.2535C12.2072 28.5334 12.1235 28.2321 11.4626 27.8147C11.1912 27.6444 11.0882 27.4479 11.0953 27.1454C11.1063 26.6886 11.0994 26.2304 11.0966 25.7722C11.094 25.0972 10.8237 24.5927 10.1904 24.2885C9.76534 24.0839 9.72845 23.9367 9.83275 23.4676C9.8984 23.1813 9.95329 22.8867 9.98623 22.5937C10.1028 21.6064 9.60659 20.9191 8.87718 20.3341C8.75247 20.2345 8.6249 20.0449 8.62907 19.899C8.64554 19.1996 8.41104 18.5001 8.68682 17.7978C8.86094 17.3518 8.57703 16.9946 8.27271 16.7067C7.79559 16.2595 7.73938 15.7168 7.85728 15.1304C7.95455 14.6369 8.18225 14.4882 8.68001 14.5563C8.8157 14.5768 8.95842 14.5795 9.08841 14.6177C10.2183 14.9573 11.108 14.5306 11.8949 13.7614C12.0251 13.6332 12.1622 13.509 12.2897 13.3781C12.7216 12.9335 13.255 12.7767 13.8583 12.8396C14.2476 12.8791 14.6314 12.9717 15.0196 12.9923C15.5213 13.0196 16.0233 13.0006 16.5825 13.0006C17.6793 14.9817 18.1496 15.2191 19.8387 14.6081C20.2445 15.0158 20.701 15.3855 20.4035 16.1053C20.2678 16.4368 20.3912 16.7899 20.6283 17.0666C20.9546 17.4499 21.2809 17.8345 21.6388 18.1876C21.8814 18.4289 22.1776 18.6171 22.456 18.834C22.2777 19.1271 22.1927 19.2826 22.0926 19.4258C21.6855 20.0109 21.6045 20.4199 22.0474 20.9244C22.6589 21.6184 22.3381 22.3493 22.3023 23.0789L22.216 23.2589C21.7802 23.7472 21.3358 24.2311 20.9012 24.7207C20.4709 25.2049 20.342 25.8102 20.2432 26.4197C20.1857 26.7796 20.1652 27.1467 20.1075 27.5079C20.0315 27.9755 19.8328 28.3845 19.4161 28.6437Z" fill="#11B0C8"/>
<path d="M219.116 28.1869C218.794 28.0316 218.485 28.105 218.184 28.2347C217.406 28.5688 216.618 28.8837 215.862 29.2615C215.374 29.5042 214.859 29.7743 214.492 30.1589C213.341 31.367 211.685 31.8059 210.451 32.8738L210.328 32.9336C209.223 33.3767 208.138 33.8854 207.005 34.2413C206.016 34.551 205 34.7375 204.334 35.6785C204.317 35.4332 204.339 35.2341 204.408 35.0513C204.611 34.5128 204.518 34.0164 204.223 33.5471C204.005 33.1981 203.757 32.8668 203.54 32.5163C203.436 32.3486 203.307 32.1523 203.31 31.9721C203.321 31.5235 203.121 31.1977 202.868 30.854C202.707 30.6291 202.573 30.3251 202.565 30.0536C202.523 28.6396 202.53 27.2253 202.502 25.8128C202.488 25.1011 202.18 24.5486 201.552 24.1697C201.37 24.0592 201.165 23.8684 201.112 23.6775C200.731 22.296 199.894 21.0565 199.831 19.5772C199.823 19.4204 199.777 19.2594 199.72 19.1122C199.268 17.9395 198.833 16.76 198.341 15.6052C198.138 15.1278 197.823 14.6902 197.514 14.2661C197.396 14.1078 197.106 13.9184 196.971 13.966C196.774 14.0329 196.555 14.2838 196.515 14.4884C196.444 14.8608 196.486 15.256 196.501 15.6434C196.539 16.8258 196.588 18.0107 196.634 19.2133C195.885 19.3797 195.704 19.8761 195.747 20.4706C195.805 21.2657 195.898 22.0565 195.988 22.8472C196.04 23.2999 196.157 23.7474 196.171 24.1999C196.195 25.0902 196.18 25.9834 196.165 26.8737C196.149 27.872 196.312 28.8374 196.744 29.7374C197.103 30.4926 197.326 31.2726 197.364 32.1044C197.384 32.5368 197.407 32.9719 197.394 33.4043C197.381 33.8323 197.538 34.169 197.868 34.4189C198.098 34.592 198.362 34.7213 198.744 34.9506C198.445 36.029 198.17 37.1351 197.83 38.2231C197.505 39.2676 197.064 40.2698 197.365 41.4209C197.502 41.9404 197.292 42.1533 196.771 42.3317C196.446 42.4438 196.106 42.516 195.786 42.6399C194.953 42.9629 194.106 43.259 193.305 43.6518C192.616 43.9914 192.576 44.4262 193.064 45.0248L193.17 45.1762L193.09 45.3043C192.935 45.3998 192.776 45.4911 192.613 45.5743C191.572 46.1102 190.732 46.8819 189.99 47.7655C189.487 48.3654 189.479 48.7692 189.887 49.3813C190.363 50.0917 190.352 50.3291 189.723 50.8947C188.958 51.5848 188.173 52.2546 187.387 52.9185C187.03 53.2198 186.728 53.543 186.564 53.9931C186.509 54.1442 186.376 54.3257 186.235 54.3764C185.401 54.6775 184.88 55.2925 184.475 56.033C184.114 56.693 183.631 57.2302 182.957 57.5781C182.592 57.7646 182.195 57.8917 181.837 58.0909C180.237 58.9812 178.923 60.2356 177.615 61.4847C177.315 61.7712 177.138 62.2034 176.964 62.5948C176.782 62.9996 176.694 63.4334 177.116 63.781C177.471 64.0728 177.895 64.0743 178.398 63.7797L178.679 63.5834C179.611 62.8049 180.528 62.0099 181.476 61.2502C181.827 60.9678 182.222 60.6924 182.642 60.5535C183.465 60.2808 184.316 60.0858 185.166 59.8962C186.085 59.689 186.884 59.3153 187.551 58.6198C188.436 57.6925 189.374 56.8144 190.294 55.9186C190.44 55.7769 190.598 55.6336 190.772 55.5301C191.367 55.1728 191.802 54.6655 192.051 54.0423C192.493 52.9351 193.228 52.0351 193.989 51.1474C194.33 50.7477 194.708 50.3756 195.026 49.9568C195.228 49.6923 195.413 49.3831 195.493 49.0636C195.745 48.0763 196.312 47.3539 197.157 46.8029C198.328 46.0366 199.477 45.2443 200.642 44.4686C201.152 44.1303 201.525 43.6872 201.802 43.1417C201.976 42.7995 202.198 42.4724 202.445 42.1765C203.154 41.3241 204.063 40.7978 205.136 40.484C206.858 39.9808 208.082 38.8546 208.857 37.2578C209.06 36.8407 209.368 36.5583 209.742 36.3321C209.994 36.1766 210.269 36.051 210.548 35.9475C211.356 35.6446 212.045 35.1662 212.692 34.603C213.07 34.273 213.471 33.9472 213.911 33.7139C215.243 33.0131 216.42 32.1049 217.51 31.0822C218.145 30.4878 218.75 29.8593 219.341 29.2222C219.72 28.8169 219.612 28.4256 219.116 28.1869Z" fill="#11B0C8"/>
<path d="M107.137 40.5274C106.754 39.6166 106.414 38.7042 106.476 37.6856C106.519 36.9833 106.458 36.2758 106.484 35.5721C106.505 35.0035 106.527 34.4252 106.654 33.8744C106.88 32.898 107.178 31.9354 107.462 30.9726C107.595 30.524 107.566 30.0986 107.273 29.7387C106.856 29.2246 106.811 28.6492 106.952 28.0547C107.127 27.3238 107.363 26.6053 107.558 25.8784C107.628 25.618 107.707 25.344 107.694 25.0793C107.673 24.6281 107.493 24.2106 107.044 24.0267C106.564 23.8288 106.135 24.0129 105.806 24.3798C105.579 24.6323 105.344 24.909 105.222 25.2186C105.005 25.7668 104.85 26.3435 104.707 26.9176C104.429 28.0425 104.177 29.1757 103.912 30.3034L103.82 30.5611C103.28 31.3901 103.093 32.3228 102.966 33.2815C102.902 33.779 102.637 34.1066 102.167 34.3833C101.487 34.7857 100.854 35.297 100.287 35.849C99.7499 36.3716 99.3195 37.0027 98.8452 37.5878C98.8589 37.1884 98.8371 36.7831 98.9069 36.3961C99.1509 35.0515 99.4335 33.7124 99.6952 32.368C99.8254 31.6971 99.9668 31.0234 100.052 30.3458C100.094 29.9927 100.089 29.6055 99.9874 29.2687C99.8612 28.8527 99.6063 28.4668 99.092 28.4356C98.6026 28.4029 98.2682 28.6686 98.0322 29.0711C97.9527 29.2089 97.8827 29.3548 97.8223 29.502C97.2191 30.9898 96.6199 32.4787 95.9783 34.0675C95.7645 33.0965 95.3655 32.3914 94.2701 32.6412C93.8863 32.007 93.7916 31.3484 93.6614 30.7035C93.5574 30.1921 93.3119 29.7667 92.954 29.3945C92.6771 29.1067 92.3262 29.1067 91.9942 29.2281C91.6557 29.3537 91.428 29.595 91.428 30.004C91.428 30.3436 91.3746 30.683 91.3498 31.0239C91.3085 31.5897 91.24 32.1571 91.2374 32.7229C91.2361 33.3147 91.2716 33.9107 91.3401 34.4997C91.4429 35.3806 90.9015 35.9589 90.4379 36.6599C90.2092 36.196 89.9801 35.8226 89.8348 35.4175C89.736 35.1463 89.7799 34.8288 89.7169 34.5409C89.6168 34.0963 89.4659 33.6639 89.3645 33.2195C89.2494 32.7109 89.1561 32.1968 89.0683 31.6854C89.0259 31.4373 89.0382 31.1824 88.993 30.9367C88.7736 29.7505 88.4322 28.5861 88.428 27.3629C88.4267 26.981 88.3718 26.587 88.2732 26.2175C88.1606 25.8017 87.8494 25.582 87.5313 25.6543C87.1242 25.7484 86.7156 25.8847 86.4962 26.2732C86.2743 26.6687 86.0672 27.079 85.9109 27.5044C85.7462 27.9532 85.6489 28.4262 85.5257 28.8898C85.4408 29.2144 85.2583 29.4148 84.8965 29.3971C84.2342 29.3672 83.9011 29.7802 83.6653 30.3106C83.4996 30.6871 83.3816 31.0852 83.1895 31.448C82.6836 32.4119 82.5561 33.3924 82.9743 34.4193C83.1168 34.7696 83.1498 35.1268 83.0169 35.487C82.5602 36.7263 82.3409 38.0545 81.6007 39.1905C81.454 39.4154 81.3252 39.688 81.3032 39.95C81.2648 40.3931 81.1607 40.9428 81.3649 41.2754C81.7338 41.8659 81.8038 42.4523 81.7858 43.0958C81.7803 43.2308 81.7997 43.3725 81.8313 43.5036C81.9382 43.9235 82.27 44.2233 82.6331 44.2426C83.0334 44.2616 83.2802 44.0572 83.4297 43.5415C83.5406 43.1653 83.6737 42.8176 83.9686 42.5313C84.3115 42.1957 84.3842 41.7539 84.2154 41.3217C84.0797 40.9673 84.1824 40.7041 84.3785 40.434C84.5267 40.2309 84.7035 40.0415 84.82 39.8234C84.9325 39.6094 85.0517 39.365 85.0504 39.1346C85.0436 38.3657 85.4588 37.8175 85.9058 37.2216C86.0621 37.3401 86.1555 37.4535 86.2747 37.4956C86.8216 37.6824 87.0162 38.1337 87.1686 38.6205C87.3837 39.3187 87.5497 40.0348 87.8185 40.7109C88.1858 41.6423 88.6274 42.5438 89.0441 43.4573L89.2141 43.6711C89.4418 43.9111 89.709 43.9764 90.0284 43.8687C90.4494 43.7309 90.7016 43.4459 90.7045 43.015C90.7071 42.1044 90.6757 41.192 90.6509 40.28C90.6371 39.7699 90.6031 39.2584 90.5756 38.6694C91.0595 38.926 91.2501 39.2178 91.2091 39.6567C91.1897 39.8601 91.2255 40.0712 91.1939 40.2717C91.0692 41.0596 91.5845 41.492 92.1029 41.919C92.3016 42.0812 92.5484 42.0841 92.7377 41.9094C93.2287 41.454 93.7097 40.9876 93.6153 40.22C93.5892 40.021 93.5837 39.8042 93.6331 39.6118C93.8237 38.8741 93.7539 38.165 93.4645 37.4694C93.3683 37.2403 93.3262 37.0209 93.47 36.7413C93.8044 37.0442 94.1526 37.258 94.357 37.5677C94.8383 38.2877 95.2632 39.0459 95.6828 39.8039C96.0146 40.4025 96.2956 41.0271 96.6177 41.6311C96.7863 41.946 97.036 42.1954 97.4334 42.1588C97.8365 42.1205 98.1066 41.9052 98.219 41.4988C98.2889 41.244 98.3918 40.9985 98.4933 40.7109L98.5824 40.8089L98.6099 41.0107C98.6659 41.9434 99.1746 42.5176 100.034 42.8327C100.334 42.9417 100.628 43.0727 100.905 43.2269C102.029 43.8525 103.302 43.6193 104.105 42.6281C104.231 42.4728 104.35 42.3118 104.528 42.0814C104.604 42.4278 104.664 42.691 104.715 42.9541C104.847 43.6047 105.166 44.1513 105.643 44.6027C106.093 45.0281 106.706 45.0595 107.221 44.7119C107.675 44.405 107.915 44.0095 107.867 43.4411C107.78 42.4269 107.527 41.4615 107.137 40.5274ZM85.2282 34.4212C85.6272 33.3645 86.0029 32.3746 86.377 31.3831L86.5553 31.4281C86.5553 31.9489 86.48 32.4835 86.5759 32.9867C86.6664 33.4501 86.942 33.8799 87.1765 34.421L85.2282 34.4212ZM103.164 39.5893C102.932 39.7801 102.758 40.0407 102.538 40.2507C102.163 40.6133 101.692 40.5491 101.618 40.0706C101.549 39.6275 101.669 39.1488 101.743 38.6919C101.816 38.2445 102.002 37.9241 102.499 37.7265C102.942 37.5465 103.291 37.1388 103.802 36.7405C103.918 37.8426 104.098 38.816 103.164 39.5893Z" fill="#11B0C8"/>
<path d="M74.6852 19.43C74.1929 19.5119 73.6776 19.5527 73.2209 19.7355C72.6726 19.9536 72.1283 20.2441 71.6621 20.604C70.2676 21.6813 68.905 22.802 67.5408 23.9188C67.2022 24.197 66.9074 24.5392 66.4179 24.4929C65.9957 24.4534 65.6543 24.6185 65.3418 24.8679C64.8399 25.266 64.3546 25.6888 63.8472 26.0814C63.614 26.2616 63.362 26.4306 63.0919 26.5479C62.6383 26.7471 62.1638 26.901 61.6921 27.0755C61.3755 26.5206 61.3494 25.941 61.6592 25.3398C61.7855 25.0972 61.8924 24.8341 61.9363 24.5681C62.0665 23.7854 62.2433 23.0053 61.7826 22.239C61.6443 22.0099 61.6908 21.6677 61.666 21.3747C61.6331 20.9901 61.7196 20.5509 61.5646 20.2292C61.304 19.6933 61.3999 19.2256 61.5714 18.7252C61.637 18.5302 61.7086 18.3365 61.762 18.1389C61.9993 17.2675 62.076 16.384 61.8948 15.4936C61.6961 14.5063 60.842 14.1982 60.0302 14.8105C59.8836 14.9197 59.7382 15.0287 59.6051 15.1283C58.7908 14.9236 58.6344 14.9455 58.2768 15.4744C58.1162 15.7118 57.9983 16.009 57.9641 16.2914C57.9189 16.6963 57.9806 17.1123 57.9722 17.5239C57.9492 18.8004 58.06 20.1026 57.8446 21.346C57.5651 22.9577 57.1976 24.5696 56.5944 26.1118C56.4135 26.5739 56.3586 27.0854 56.2462 27.5734C56.1406 28.0384 56.0637 28.5116 55.9238 28.9658C55.7058 29.683 55.4261 30.3825 55.2096 31.1025C55.1343 31.3563 55.1301 31.6493 55.163 31.9168C55.2179 32.3584 55.4825 32.6749 55.91 32.8166C56.2954 32.9448 56.5764 32.7458 56.8109 32.4663C57.0878 32.1322 57.3565 31.7913 57.6402 31.46C57.7623 31.318 57.9077 31.1966 58.0431 31.0658L58.2063 31.1571C58.1103 31.5443 58.0076 31.933 57.9184 32.3246C57.8512 32.6109 57.7608 32.9013 57.7566 33.1904C57.7428 34.254 57.5919 35.2673 57.0204 36.2039C56.7819 36.5968 56.646 37.1312 57.052 37.4747C57.4949 37.8512 57.4428 38.2615 57.3618 38.7116C57.1082 40.1282 56.8504 41.5423 56.5817 42.955C56.5351 43.2004 56.4596 43.4459 56.3527 43.6708C55.9825 44.4441 55.8564 45.2744 55.67 46.0992C55.4713 46.9857 55.8852 47.5476 56.413 48.1053C56.7325 48.4449 57.0533 48.4803 57.3754 48.1488C57.6881 47.8284 58.0115 47.4521 58.1433 47.0416C58.4146 46.1908 58.7067 45.3563 59.0905 44.5505C59.1864 44.3459 59.2398 44.117 59.2879 43.896C59.4756 43.0249 59.6526 42.152 59.8348 41.2804C60.0061 40.4556 60.1791 39.6319 60.375 38.7007C61.107 39.0416 61.4607 38.5644 61.8419 38.1117C61.9269 38.0082 62.0887 37.9687 62.2531 37.8798C62.4068 38.286 62.4848 38.6583 62.6796 38.9557C62.8743 39.2514 63.1896 39.4709 63.4458 39.7288L63.6035 39.9522C64.1821 41.0173 64.8223 42.0675 64.9073 43.3138C64.9607 44.0882 65.3489 44.642 65.9232 45.1001C66.6033 45.6415 66.9886 46.3722 67.1585 47.1822C67.3944 48.2922 67.9565 49.2208 68.6255 50.0908C68.923 50.4778 69.0642 50.8692 69.1162 51.3356C69.1588 51.7174 69.1931 52.1294 69.3632 52.4618C69.6482 53.0198 69.8663 53.5719 69.9128 54.2045C69.9458 54.6668 70.3131 54.9422 70.7492 54.949C71.2344 54.9544 71.4718 54.7537 71.5897 54.229C71.6101 54.1418 71.6129 54.049 71.6281 53.9127C72.3178 53.9237 72.659 53.7422 72.7468 53.2159C72.8673 52.4959 72.9455 51.765 72.6618 51.0519C72.5261 50.7124 72.415 50.3634 72.3 50.0157C71.6255 47.9756 70.9771 45.9346 70.8647 43.7582C70.8357 43.2441 70.5562 42.7041 70.2696 42.2527C69.7828 41.4892 69.4153 40.7161 69.2701 39.8066C69.0728 38.5764 68.5669 38.1442 67.3342 37.9398C66.8709 37.8621 66.4513 37.7201 66.1593 37.3083C65.4971 36.3745 64.8157 35.454 64.1467 34.528C64.0521 34.397 63.9794 34.254 63.8973 34.1162C63.6738 33.748 63.4654 33.3702 63.2267 33.0129C62.7441 32.2861 63.0115 31.4312 63.8398 31.1147C64.3551 30.9197 64.8735 30.7371 65.3875 30.5408C66.8516 29.9831 67.8675 29.0368 68.2474 27.4592C68.4694 26.5444 68.9452 25.7683 69.9049 25.4084C70.0981 25.3361 70.2696 25.2108 70.4574 25.1262C71.4158 24.6858 72.1052 23.9767 72.5536 23.0344C72.7277 22.6703 73.0114 22.4345 73.3159 22.1781C73.963 21.6341 74.5596 21.03 75.1599 20.4328C75.3408 20.2541 75.4574 20.0222 75.312 19.7497C75.1774 19.4953 74.9594 19.3834 74.6852 19.43Z" fill="#11B0C8"/>
<path d="M177.39 49.107C177.617 48.7934 177.691 48.4252 177.58 48.0627C177.401 47.4762 177.199 46.8929 176.959 46.3268C176.566 45.4092 176.341 44.4983 176.503 43.4688C176.756 41.8489 176.396 40.3093 175.403 38.992C174.978 38.429 174.823 37.8957 174.916 37.2262C174.975 36.8008 174.971 36.3631 174.719 35.9637C174.143 35.0541 173.591 34.1323 172.595 33.5829C172.247 33.392 172.259 32.9815 172.602 32.7539C172.812 32.6161 173.061 32.5438 173.282 32.4211C173.681 32.2016 174.101 32.0025 174.46 31.7271C174.907 31.3833 175.381 31.142 175.937 31.037C176.152 30.9959 176.36 30.8828 176.557 30.7767C177.229 30.4168 177.669 29.8398 178.053 29.203C178.277 28.8322 178.357 28.4435 178.311 28.022C178.281 27.7495 178.277 27.4684 178.201 27.2081C178.094 26.8427 178.017 26.4158 177.775 26.154C177.317 25.6563 177.022 25.0712 176.66 24.5218C176.441 24.185 176.36 23.9245 176.597 23.5358C176.947 22.9658 176.81 22.4572 176.322 21.999C175.781 21.4972 175.163 21.2707 174.426 21.4371C173.81 21.5747 173.24 21.4303 172.695 21.155C171.841 20.7213 171.293 20.7636 170.665 21.4673C170.027 22.1831 169.465 22.9673 168.873 23.7227C168.78 23.8411 168.695 23.9666 168.586 24.1167C168.228 23.7893 168.257 23.3954 168.211 23.0191C168.106 22.1818 168.022 21.3404 167.853 20.5169C167.753 20.0275 167.421 19.8145 167.036 19.8117C166.615 19.8065 166.226 20.1063 166.098 20.5782C166.046 20.7662 166.068 20.9763 166.061 21.1768C166.039 21.7673 166.053 22.3604 165.991 22.9481C165.874 24.0813 165.625 25.2077 165.596 26.3422C165.566 27.5872 165.382 28.7911 165.116 30.0008C165.027 30.4111 165.074 30.857 165.101 31.2851C165.136 31.836 165.466 32.1946 165.942 32.4549C166.534 32.7768 166.675 33.1765 166.422 33.8157C166.28 34.1771 166.086 34.5167 165.944 34.8794C165.702 35.5014 165.662 36.1419 165.998 36.7365C166.361 37.3816 166.372 38.0005 166.168 38.707C166.008 39.2632 165.942 39.8891 166.017 40.4602C166.114 41.1968 166.121 41.914 166.032 42.6407C165.995 42.9351 165.959 43.2393 165.998 43.5282C166.029 43.7586 166.125 44.0218 166.282 44.1895C166.867 44.8167 167.805 44.668 168.138 43.8541C168.33 43.381 168.408 42.8355 168.416 42.3228C168.43 41.5276 168.592 40.8009 168.919 40.0728C169.158 39.5436 169.244 38.9383 169.355 38.36C169.421 38.011 169.402 37.6483 169.417 37.3906C169.58 37.5107 169.783 37.6498 169.979 37.7996C170.909 38.5072 171.579 39.4248 172.151 40.4272C172.365 40.8024 172.614 41.1774 172.921 41.4759C173.579 42.1142 173.831 42.8652 173.786 43.7626C173.766 44.1908 173.769 44.656 173.917 45.0447C174.202 45.7985 174.394 46.5648 174.547 47.353C174.69 48.0743 174.975 48.7563 175.534 49.2769C176.123 49.8244 176.925 49.7493 177.39 49.107ZM172.052 29.2639C171.874 29.5939 171.585 29.8627 171.319 30.1873C171.157 30.0741 171.012 30.0237 170.953 29.9228C170.687 29.4675 170.37 29.0678 169.954 28.7282C169.802 28.6042 169.799 28.3028 169.714 28.0382C170.429 27.8733 170.824 27.4968 171.065 26.8997C171.475 25.8921 171.704 25.7884 173.077 25.9179C172.068 26.5955 172.075 27.4042 172.292 28.3109C172.361 28.5987 172.204 28.9792 172.052 29.2639Z" fill="#11B0C8"/>
<path d="M177.592 32.6827C177.066 32.8203 176.845 33.1846 176.95 33.7054C177.07 34.3108 177.439 34.6532 178.054 34.5986C178.592 34.551 179.029 34.7418 179.504 34.9205C180.218 35.1904 180.764 35.8558 181.656 35.7484C181.6 35.9242 181.586 36.0427 181.53 36.1353C181.171 36.7448 181.038 37.398 181.016 38.1001C181.005 38.4194 180.847 38.759 180.679 39.044C180.453 39.4285 180.38 39.8129 180.496 40.2248C180.588 40.5532 180.694 40.8873 180.861 41.1819C181.06 41.5322 181.071 41.8187 180.899 42.1976C180.533 43.0159 180.435 43.8669 180.889 44.7082C180.961 44.8444 181.019 45.0135 181.012 45.1635C180.961 46.1425 181.041 47.161 180.793 48.0885C180.446 49.3785 180.415 50.6591 180.446 51.9585C180.46 52.5531 180.583 53.1475 180.956 53.6382C181.313 54.1073 181.759 54.0678 182.057 53.5618C182.125 53.4459 182.162 53.3098 182.203 53.1786C182.405 52.5269 182.604 51.8737 182.797 51.2166C182.9 50.8674 183.031 50.52 183.075 50.1625C183.259 48.6244 183.435 47.0835 183.576 45.5413C183.654 44.685 183.791 43.8669 184.308 43.1496C184.424 42.9875 184.529 42.7829 184.544 42.5905C184.593 41.9332 184.685 41.2665 184.435 40.6227C184.32 40.3283 184.334 40.0472 184.491 39.7692C184.963 38.9335 185.008 38.0388 184.893 37.1115C184.84 36.6887 184.847 36.2565 184.826 35.8298L184.993 35.7084C185.232 35.8189 185.516 35.8787 185.701 36.048C186.489 36.7693 187.449 36.8431 188.41 36.6957C188.942 36.6127 189.341 36.6944 189.748 36.9999C190.275 37.3965 190.879 37.6013 191.541 37.6271C192.472 37.6596 192.827 37.3421 192.87 36.4463C193.058 36.3114 193.257 36.1928 193.429 36.0441C193.902 35.6335 193.946 35.1264 193.503 34.6748C193.287 34.4525 193.003 34.2616 192.712 34.1526C192.33 34.0094 191.916 33.9314 191.508 33.8784C191.217 33.8404 190.997 33.7421 190.804 33.5172C190.427 33.0741 189.924 32.8723 189.344 32.8627C188.909 32.8559 188.473 32.8611 188.029 32.8611C187.444 32.0595 187.264 32.0022 186.174 32.1468C185.707 32.2066 185.227 32.3241 184.681 32.0867C184.792 31.7349 184.865 31.3764 185.016 31.0571C185.468 30.0973 185.774 29.0921 185.963 28.0587C186.169 26.9338 186.388 25.8198 186.923 24.7915L186.964 24.6607C187.083 23.8712 187.106 23.1117 186.425 22.5157C185.882 22.0425 185.87 21.9184 186.23 21.2993C186.599 20.6667 187.001 20.0517 187.335 19.4024C187.53 19.0249 187.699 18.6034 187.742 18.1876C187.827 17.3518 187.251 16.8731 186.407 17.0068C185.651 17.1267 185.199 17.6095 184.899 18.2736C184.684 18.7495 184.451 19.2173 184.221 19.6903C183.635 20.9012 183.017 22.0971 182.844 23.4648C182.782 23.9544 182.593 24.4303 182.427 24.902C182.171 25.6397 181.961 26.387 181.975 27.1738C181.983 27.711 181.865 28.2102 181.625 28.6929C181.301 29.3474 181.215 30.0294 181.36 30.7588C181.524 31.577 181.268 31.8675 180.449 31.8714C180.002 31.8727 179.573 31.9136 179.216 32.2123C178.902 32.4755 178.538 32.5735 178.137 32.5969C177.954 32.6076 177.769 32.6364 177.592 32.6827Z" fill="#11B0C8"/>
<path d="M52.8615 38.4382C52.0403 39.0258 51.5041 39.0315 50.672 38.4532C50.4265 38.2829 50.1948 38.0934 49.9467 37.9296C49.5122 37.6406 49.057 37.545 48.6113 37.9051C48.3412 38.122 48.067 38.1165 47.7789 37.9693C47.295 37.7197 46.8425 37.8154 46.4108 38.0879C46.0806 38.2938 45.7734 38.5393 45.4374 38.733C44.9741 38.9975 44.5449 38.7535 44.5381 38.2244C44.5352 38.0468 44.571 37.856 44.6435 37.6939C44.7915 37.3613 44.9671 37.0408 45.1467 36.7243C45.3729 36.3288 45.6594 35.9595 45.8406 35.5448C46.256 34.5905 46.1038 34.1188 45.2662 33.5663C45.1715 33.5036 45.0756 33.4436 44.9232 33.3453C45.0424 32.4617 45.6129 31.9422 46.216 31.439C47.0249 30.7653 47.8419 30.0999 48.6208 29.3921C49.0568 28.9953 49.346 28.4992 49.0417 27.88C49.4762 27.6073 49.9136 27.5036 50.3839 27.5077C50.7747 27.5105 51.1656 27.5119 51.5562 27.4968C52.5434 27.4586 53.4043 27.1465 54.0103 26.3256C54.2668 25.9764 54.3858 25.5783 54.1695 25.1677C53.9721 24.7902 53.632 24.6183 53.2016 24.6373C52.4461 24.6698 51.6895 24.681 50.9368 24.7478C50.5953 24.779 50.3198 24.7819 50.0772 24.4914C49.8113 24.1737 49.4411 24.0686 49.0228 24.0946C47.9849 24.1614 47.0471 24.5078 46.2534 25.1706C46.0081 25.3752 45.7653 25.7091 45.7255 26.0105C45.6282 26.7713 45.2086 27.126 44.5027 27.2526L44.1749 27.3535C42.8013 27.7449 42.3474 28.2998 42.1595 29.6907C42.0826 30.2716 42.0045 30.8974 41.7359 31.3993C41.3519 32.1084 41.1506 32.8242 41.1067 33.6108C41.0792 34.1306 40.8763 34.5791 40.52 34.9661C40.2719 35.2347 39.9908 35.4953 39.8263 35.8132C39.6096 36.229 39.4232 36.6859 39.3477 37.1467C39.2517 37.7208 39.6287 38.0955 40.2102 38.1392C40.3144 38.1473 40.4185 38.1405 40.5885 38.1405C40.4389 38.3958 40.2896 38.5755 40.2183 38.7843C40.0797 39.1892 39.9179 39.6039 39.8823 40.0223C39.8261 40.6768 40.1386 40.9823 40.8091 41.0341C41.1297 41.0601 41.452 41.0452 41.7741 41.052C42.4434 41.0684 42.6531 41.2878 42.5229 41.9395C42.405 42.5409 42.5255 43.0589 43.0261 43.3998C43.4881 43.7178 43.5827 44.1323 43.5937 44.6328C43.6005 44.9506 43.6335 45.2751 43.7224 45.5793C43.7896 45.8081 43.9294 46.0374 44.0939 46.2146C44.3763 46.5227 44.771 46.5565 45.0741 46.2772C45.3358 46.0333 45.569 45.7359 45.7404 45.4223C46.0022 44.9423 46.1765 44.4131 46.4327 43.9305C46.6356 43.5516 46.8728 43.1804 47.151 42.8547C47.3936 42.5695 47.6966 42.4387 48.1285 42.601C48.3917 42.7003 48.7661 42.635 49.0472 42.5287C49.3831 42.402 49.7026 42.1878 49.9711 41.9478C50.4386 41.5265 50.9363 41.4108 51.5546 41.513C52.9737 41.7475 54.2788 40.8148 54.5063 39.405C54.5542 39.1145 54.4925 38.7489 54.3432 38.4995C54.027 37.9667 53.5128 37.9719 52.8615 38.4382Z" fill="#11B0C8"/>
<path d="M162.69 34.687C162.187 34.083 162.063 33.5049 162.402 32.8011C162.617 32.3486 162.839 31.8889 162.972 31.4089C163.303 30.2307 163.278 29.0689 162.683 27.955C162.558 27.7217 162.499 27.4394 162.472 27.1736C162.409 26.6078 162.214 26.1371 161.792 25.7242C161.046 24.9933 160.242 24.3838 159.24 24.0332C157.861 23.5532 156.581 23.7129 155.514 24.6904C154.828 25.3191 154.299 26.114 153.689 26.8244C153.5 27.0439 153.294 27.269 153.053 27.4217C151.985 28.0967 151.153 28.9434 150.944 30.2416C150.821 31.0012 150.554 31.6596 150.036 32.2665C149.373 33.0463 149.319 34.2188 149.89 34.946C150.642 35.9071 150.778 36.968 150.625 38.1189C150.565 38.5703 150.536 39.0256 150.484 39.5755C150.542 39.9843 150.56 40.4932 150.699 40.9675C150.859 41.5182 151.301 41.8074 151.79 41.6833C152.362 41.5359 152.759 41.7991 153.191 42.0679C153.535 42.2832 153.892 42.485 154.265 42.646C154.484 42.7416 154.639 42.8423 154.754 43.0675C155.123 43.7859 155.575 44.0259 156.39 43.8694C157.015 43.7479 157.612 43.5095 158.271 43.632C158.416 43.6593 158.603 43.6034 158.734 43.5258C159.403 43.1314 160.168 42.8246 160.7 42.2915C161.649 41.3411 162.515 40.2914 163.302 39.2006C163.772 38.5487 164.119 37.7795 163.9 36.885C163.692 36.0358 163.224 35.3321 162.69 34.687ZM157.67 37.0078C158.01 37.7073 157.988 37.7184 157.92 38.4067C157.496 38.4478 157.051 38.4902 156.654 38.5255C156.324 38.0156 156.032 37.5588 155.735 37.1061C155.482 36.7269 155.17 36.4295 154.676 36.4529C154.314 36.4692 154.189 36.2565 154.131 35.9622C154.068 35.6497 154.016 35.3334 153.951 35.0212C153.769 34.1441 153.976 33.3765 154.65 32.7821C155.31 32.201 155.574 31.5342 155.425 30.6507C155.307 29.9525 155.803 29.5365 156.4 29.246C156.297 29.6852 156.184 30.1228 156.098 30.5646C155.92 31.462 156.296 32.1191 157.024 32.6128C157.195 32.7286 157.383 32.8175 157.553 32.9347C157.99 33.2346 158.079 33.4883 157.912 33.9915C157.834 34.2289 157.722 34.4564 157.625 34.6896C157.306 35.4686 157.292 36.2334 157.67 37.0078Z" fill="#11B0C8"/>
<path d="M36.4726 30.9005C36.4465 30.0414 36.5947 29.2207 36.9004 28.4201C37.1267 27.8283 37.2444 27.2024 36.9566 26.6176C36.6369 25.9683 36.5631 25.3195 36.6907 24.6268V24.3527C36.6549 23.8277 36.4055 23.5714 35.875 23.5222C35.402 23.4814 34.9673 23.5875 34.567 23.8535C34.4271 23.9476 34.2423 24.0363 34.0831 24.0267C33.2483 23.9762 32.9369 24.2066 33.0425 25.007C33.155 25.8742 33.0507 26.687 32.7463 27.4913C32.6983 27.6182 32.686 27.7573 32.6572 27.8923C32.5529 28.3845 32.6214 28.8045 33.1411 29.0379C33.4716 29.1864 33.5482 29.4782 33.4922 29.7824C33.4386 30.0689 33.3194 30.3456 33.2096 30.6183C33.0232 31.0848 32.7929 31.5347 32.6326 32.0077C32.3707 32.7864 32.4517 33.501 33.1563 34.0408C33.4318 34.2522 33.5743 34.5289 33.5592 34.8698C33.5291 35.5518 33.5276 36.2378 33.4332 36.9112C33.3701 37.372 33.2836 37.8208 33.4894 38.2532C33.6771 38.6459 33.7074 39.0455 33.6114 39.4545C33.4948 39.9564 33.6005 40.4062 33.8802 40.8223C34.1338 41.1974 34.2256 41.6104 34.2133 42.0576C34.2052 42.4682 34.212 42.8801 34.212 43.2917H34.1929C34.1929 43.7715 34.1777 44.2528 34.197 44.733C34.2203 45.3139 34.3505 45.8702 34.7727 46.3052C35.2402 46.7852 35.7983 46.7291 36.1562 46.1702C36.2507 46.0176 36.3387 45.8389 36.3576 45.6642C36.4193 45.1231 36.5126 44.5721 36.4729 44.0336C36.3809 42.7298 36.5126 41.4811 37.1458 40.3108C37.2541 40.1147 37.287 39.8786 37.368 39.6644C37.7121 38.7727 37.6052 37.9178 37.1597 37.0901L37.0953 36.9685C36.8705 36.5241 36.8786 36.0986 37.1529 35.6678C37.3735 35.3214 37.5395 34.9382 37.7712 34.5986C38.2964 33.8364 38.2222 32.8491 37.1994 32.2534C36.6316 31.9232 36.4891 31.4785 36.4726 30.9005Z" fill="#11B0C8"/>
<path d="M33.8266 21.0499C34.3641 21.4863 34.9906 21.6446 35.6335 21.4127C36.297 21.174 36.6165 20.6204 36.6685 19.9237C36.7383 18.9884 36.8727 18.0721 37.0989 17.157C37.3415 16.1726 36.7383 15.5628 35.6332 15.7157C35.6923 15.3857 35.7525 15.1241 35.7828 14.8581C35.8789 14.07 35.2947 13.3364 34.601 13.4155C34.0719 13.4756 33.5796 13.6693 33.2039 14.0837C32.7843 14.5474 32.6376 15.2713 32.9819 15.7924C33.2904 16.2534 33.2 16.6227 32.9655 17.0551C32.7255 17.4955 32.498 17.9524 32.3513 18.4269C32.155 19.072 32.2374 19.7019 32.7777 20.1847C33.1165 20.4854 33.4755 20.7647 33.8266 21.0499Z" fill="#11B0C8"/>
<path d="M190.458 57.3538V57.485H190.078V58.4695H189.925V57.485H189.545V57.3538" fill="#11B0C8"/>
<path d="M190.562 57.3538H190.779L191.104 58.2963L191.426 57.3538H191.641V58.4695H191.499V57.8166L191.5 57.6964V57.5285L191.178 58.4695H191.028L190.698 57.5285V57.5615L190.706 57.6868V58.4695H190.562" fill="#11B0C8"/>
</svg>


