<svg width="14" height="16" viewBox="0 0 14 16" fill="none" xmlns="http://www.w3.org/2000/svg">
<path d="M7 0C5.14414 0.00207954 3.36489 0.725194 2.0526 2.01071C0.740303 3.29622 0.00212286 5.03915 0 6.85714C0 8.57143 0.915833 10.79 2.45073 12.7857C3.9951 14.7964 5.69552 16 7 16C8.30448 16 10.0049 14.7993 11.5493 12.7857C13.0842 10.7857 14 8.57143 14 6.85714C13.9979 5.03915 13.2597 3.29622 11.9474 2.01071C10.6351 0.725194 8.85586 0.00207954 7 0ZM10.6174 12.1014C9.35083 13.7493 7.8976 14.8571 7 14.8571C6.1024 14.8571 4.64917 13.7493 3.3826 12.1014C2.01615 10.3214 1.16667 8.31214 1.16667 6.85714C1.16667 5.34162 1.78125 3.88817 2.87521 2.81653C3.96917 1.7449 5.4529 1.14286 7 1.14286C8.5471 1.14286 10.0308 1.7449 11.1248 2.81653C12.2188 3.88817 12.8333 5.34162 12.8333 6.85714C12.8333 8.31214 11.9839 10.3214 10.6174 12.1014ZM6.41667 8.57143C6.41667 7.81367 6.10938 7.08694 5.56239 6.55112C5.01541 6.01531 4.27355 5.71429 3.5 5.71429C3.19058 5.71429 2.89383 5.83469 2.67504 6.04902C2.45625 6.26335 2.33333 6.55404 2.33333 6.85714C2.33333 7.6149 2.64062 8.34163 3.18761 8.87745C3.73459 9.41327 4.47645 9.71429 5.25 9.71429C5.55942 9.71429 5.85616 9.59388 6.07496 9.37955C6.29375 9.16522 6.41667 8.87453 6.41667 8.57143ZM3.5 6.85714C3.96413 6.85714 4.40925 7.03775 4.73744 7.35925C5.06563 7.68074 5.25 8.11677 5.25 8.57143C4.78587 8.57143 4.34075 8.39082 4.01256 8.06933C3.68437 7.74784 3.5 7.3118 3.5 6.85714ZM10.5 5.71429C9.72645 5.71429 8.98459 6.01531 8.4376 6.55112C7.89062 7.08694 7.58333 7.81367 7.58333 8.57143C7.58333 8.87453 7.70625 9.16522 7.92504 9.37955C8.14383 9.59388 8.44058 9.71429 8.75 9.71429C9.13302 9.71429 9.51229 9.64038 9.86616 9.4968C10.22 9.35321 10.5416 9.14276 10.8124 8.87745C11.0832 8.61214 11.2981 8.29717 11.4446 7.95052C11.5912 7.60388 11.6667 7.23235 11.6667 6.85714C11.6667 6.55404 11.5437 6.26335 11.325 6.04902C11.1062 5.83469 10.8094 5.71429 10.5 5.71429ZM8.75 8.57143C8.75 8.11677 8.93437 7.68074 9.26256 7.35925C9.59075 7.03775 10.0359 6.85714 10.5 6.85714C10.5 7.3118 10.3156 7.74784 9.98744 8.06933C9.65925 8.39082 9.21413 8.57143 8.75 8.57143ZM8.75 12C8.75 12.1516 8.68854 12.2969 8.57915 12.4041C8.46975 12.5112 8.32138 12.5714 8.16667 12.5714H5.83333C5.67862 12.5714 5.53025 12.5112 5.42085 12.4041C5.31146 12.2969 5.25 12.1516 5.25 12C5.25 11.8484 5.31146 11.7031 5.42085 11.5959C5.53025 11.4888 5.67862 11.4286 5.83333 11.4286H8.16667C8.32138 11.4286 8.46975 11.4888 8.57915 11.5959C8.68854 11.7031 8.75 11.8484 8.75 12Z" fill="white"/>
</svg>

