<svg width="14" height="12" viewBox="0 0 14 12" fill="none" xmlns="http://www.w3.org/2000/svg">
<path d="M14 6.00013C14 6.13274 13.9473 6.25992 13.8536 6.35368C13.7598 6.44745 13.6326 6.50013 13.5 6.50013H11.8088L9.4475 11.2239C9.40593 11.307 9.34204 11.3768 9.263 11.4256C9.18396 11.4744 9.09289 11.5002 9 11.5001H8.975C8.87801 11.4953 8.78452 11.4624 8.70594 11.4054C8.62736 11.3483 8.5671 11.2696 8.5325 11.1789L4.95937 1.79763L2.955 6.20701C2.91529 6.29438 2.85127 6.36848 2.77059 6.42046C2.68991 6.47243 2.59597 6.50009 2.5 6.50013H0.5C0.367392 6.50013 0.240215 6.44745 0.146447 6.35368C0.0526784 6.25992 0 6.13274 0 6.00013C0 5.86752 0.0526784 5.74035 0.146447 5.64658C0.240215 5.55281 0.367392 5.50013 0.5 5.50013H2.17812L4.545 0.293256C4.5858 0.203403 4.65229 0.127635 4.73607 0.0754931C4.81985 0.0233515 4.91719 -0.0028313 5.01583 0.000242722C5.11447 0.00331675 5.20999 0.03551 5.29036 0.0927677C5.37074 0.150025 5.43237 0.229787 5.4675 0.322006L9.06188 9.75951L11.0525 5.77763C11.0939 5.69433 11.1577 5.62422 11.2368 5.5752C11.3158 5.52618 11.407 5.50018 11.5 5.50013H13.5C13.6326 5.50013 13.7598 5.55281 13.8536 5.64658C13.9473 5.74035 14 5.86752 14 6.00013Z" fill="#BFDE42"/>
</svg>

