<svg width="14" height="11" viewBox="0 0 14 11" fill="none" xmlns="http://www.w3.org/2000/svg">
<path d="M13.8313 1.64404C13.385 0.888485 12.2073 0.718356 10.4188 1.14798C9.59079 0.519265 8.59983 0.131195 7.55848 0.0278507C6.51712 -0.0754934 5.46713 0.110031 4.52778 0.563349C3.58842 1.01667 2.79736 1.71961 2.24446 2.59231C1.69156 3.46501 1.39899 4.4725 1.39997 5.50031C1.40005 5.73607 1.41524 5.97158 1.44547 6.20546C-0.16976 7.8489 -0.146427 8.82271 0.169153 9.35658C0.46665 9.86296 1.08731 10.0829 1.90397 10.0829C2.47097 10.0714 3.03464 9.9945 3.58337 9.8538C4.41146 10.4819 5.40231 10.8694 6.44339 10.9724C7.48448 11.0753 8.5341 10.8895 9.47309 10.4362C10.4121 9.98277 11.2028 9.27995 11.7555 8.40747C12.3082 7.535 12.6007 6.52783 12.5999 5.50031C12.6 5.26571 12.585 5.03134 12.5549 4.7986C13.2841 4.05393 13.7694 3.34648 13.9345 2.74101C14.0483 2.3217 14.0138 1.9528 13.8313 1.64404ZM6.99991 0.917699C8.05687 0.918766 9.08224 1.27167 9.90862 1.91879C10.735 2.56591 11.3136 3.46902 11.5499 4.48068C10.5547 5.40064 9.20781 6.34409 7.92915 7.06585C6.32209 7.97149 4.92794 8.53629 3.81611 8.84562C3.13133 8.21844 2.65469 7.40334 2.44825 6.50643C2.2418 5.60952 2.31512 4.67235 2.65865 3.81693C3.00218 2.96151 3.60002 2.22746 4.37432 1.71036C5.14862 1.19326 6.06352 0.917051 6.99991 0.917699ZM0.976478 8.8966C0.891312 8.75282 0.938561 8.48188 1.10598 8.15193C1.27153 7.84279 1.47295 7.5535 1.70622 7.28982C1.93745 7.94771 2.29375 8.55652 2.75621 9.08392C1.74997 9.25004 1.12231 9.14406 0.976478 8.8966ZM6.99991 10.0829C6.21308 10.0837 5.439 9.88776 4.7506 9.51354C6.01414 9.07471 7.23331 8.52126 8.39231 7.86036C9.65113 7.15063 10.7653 6.38132 11.663 5.62175C11.6298 6.81504 11.1241 7.94858 10.2534 8.78159C9.38266 9.6146 8.21553 10.0814 6.99991 10.0829ZM13.0327 2.50386C12.9335 2.86531 12.6716 3.27889 12.2959 3.71424C12.0653 3.05556 11.709 2.44608 11.246 1.91843C12.0749 1.78381 12.8425 1.79412 13.0251 2.10402C13.0776 2.19396 13.0805 2.32857 13.0327 2.50386Z" fill="white"/>
</svg>

